Coordinates
version=1
nRows=27
nColumns=12
inDegrees=yes

Units are S.I. units (second, meters, Newtons, ...)
Angles are in degrees

endheader
time	SC_y	SC_z	SC_x	AC_y	AC_z	AC_x	GH_y	GH_z	GH_yy	EL_x	PS_y
       0.0              -12.71          29.19          60.09          50.18         -7.978         -10.07          16.06          15.23          -93.3          124.7          54.04
  0.006036              -12.72          29.19          60.09          50.18         -7.977         -10.07          16.06          15.24         -93.31          124.7          54.04
   0.01207              -12.72          29.19          60.09          50.18         -7.976         -10.07          16.05          15.25         -93.31          124.7          54.05
   0.01811              -12.72          29.19          60.08          50.18         -7.974         -10.07          16.05          15.25         -93.32          124.7          54.05
   0.02414              -12.73          29.19          60.08          50.18         -7.973         -10.07          16.04          15.26         -93.32          124.7          54.05
   0.03018              -12.73          29.19          60.07          50.18         -7.971         -10.07          16.04          15.27         -93.33          124.7          54.06
   0.03622              -12.74          29.19          60.07          50.17          -7.97         -10.07          16.04          15.28         -93.34          124.7          54.06
   0.04225              -12.74           29.2          60.06          50.17         -7.968         -10.07          16.03          15.29         -93.34          124.7          54.06
   0.04829              -12.75           29.2          60.06          50.17         -7.966         -10.07          16.03           15.3         -93.35          124.7          54.07
   0.05433              -12.76           29.2          60.05          50.17         -7.964         -10.07          16.02          15.32         -93.36          124.7          54.07
   0.06036              -12.76           29.2          60.05          50.17         -7.962         -10.07          16.01          15.33         -93.37          124.7          54.08
    0.0664              -12.77           29.2          60.04          50.17          -7.96         -10.07          16.01          15.34         -93.38          124.7          54.08
   0.07243              -12.78          29.21          60.03          50.17         -7.957         -10.07           16.0          15.36         -93.39          124.6          54.09
   0.07847              -12.79          29.21          60.02          50.17         -7.954         -10.07          15.99          15.37          -93.4          124.6          54.09
   0.08451               -12.8          29.21          60.01          50.17         -7.951         -10.07          15.99          15.39         -93.41          124.6           54.1
   0.09054              -12.81          29.21           60.0          50.16         -7.948         -10.06          15.98          15.41         -93.42          124.6          54.11
   0.09658              -12.82          29.22          59.99          50.16         -7.945         -10.06          15.97          15.43         -93.44          124.6          54.12
    0.1026              -12.83          29.22          59.98          50.16         -7.941         -10.06          15.96          15.45         -93.45          124.6          54.12
    0.1087              -12.84          29.22          59.97          50.16         -7.937         -10.06          15.95          15.48         -93.47          124.6          54.13
    0.1147              -12.86          29.23          59.96          50.16         -7.933         -10.06          15.93          15.51         -93.49          124.6          54.14
    0.1207              -12.87          29.23          59.94          50.15         -7.928         -10.06          15.92          15.54         -93.51          124.6          54.15
    0.1268              -12.89          29.24          59.93          50.15         -7.922         -10.06           15.9          15.57         -93.53          124.5          54.17
    0.1328              -12.91          29.24          59.91          50.15         -7.916         -10.06          15.89           15.6         -93.55          124.5          54.18
    0.1388              -12.93          29.25          59.89          50.14          -7.91         -10.05          15.87          15.64         -93.58          124.5          54.19
    0.1449              -12.95          29.26          59.86          50.14         -7.902         -10.05          15.85          15.69         -93.61          124.5          54.21
    0.1509              -12.98          29.26          59.84          50.14         -7.894         -10.05          15.83          15.74         -93.64          124.5          54.23
    0.1569              -13.01          29.27          59.81          50.13         -7.885         -10.05           15.8          15.79         -93.68          124.4          54.25
